<svg width="496" height="523" viewBox="0 0 496 523" fill="none" xmlns="http://www.w3.org/2000/svg">
<path d="M329 339L428 393.207V487.696L365.646 524H329V339Z" fill="#23C8B2"/>
<path d="M0 486V524H90L0 486Z" fill="#C3ECEE"/>
<path d="M236 392.5L329.5 337.5V429.5V523H236V392.5Z" fill="#A1E8E4"/>
<path d="M236.5 484.5V393L143 448L236.5 484.5Z" fill="#23C8B2"/>
<path d="M329.5 429V337.5L236 392.5L329.5 429Z" fill="#C3ECEE"/>
<path d="M411 194L327 158.255L411 121V194Z" fill="#ECCDB3"/>
<path d="M236 193L152 157.745L236 121V193Z" fill="#BCEFD0"/>
<path d="M236 194L327 158.255L236 121V194Z" fill="#C3ECEE"/>
<path d="M411 48L494 83.7448L411 121V48Z" fill="#ECCDB3"/>
<path d="M446 16L470 2.14359V29.8564L446 16Z" fill="#F4B2A6"/>
<path d="M171 205L139.5 186.813V223.187L171 205Z" fill="#23C8B2"/>
<path d="M182 121L158 107.144V134.856L182 121Z" fill="#A1E8E4"/>
<path d="M420 489.759V392L501 437V527H483.72L420 489.759Z" fill="#FC6472"/>
<path d="M362 523L419.996 489L479 523H362Z" fill="#ECCDB3"/>
<path d="M420 393L496.5 347.967V438.033L420 393Z" fill="#F4B2A6"/>
<path d="M419.934 393L324 336.411L499 244V347.314L419.934 393Z" fill="#A1E8E4"/>
<path d="M236 305V393L411 294L327.02 257L236 305Z" fill="#BCEFD0"/>
<path d="M411 294V193.5L326 158V256.5L411 294Z" fill="#FC6472"/>
<path d="M496 158V247L411 294V193.5L496 158Z" fill="#F4B2A6"/>
<path d="M236 306V193.358L327 158V257.003L236 306Z" fill="#23C8B2"/>
</svg>
