<svg width="808" height="258" viewBox="0 0 808 258" fill="none" xmlns="http://www.w3.org/2000/svg">
<path d="M95 88L179 52.7448L95 16V88Z" fill="#BCEFD0"/>
<path d="M95 89L4 53.2552L95 16V89Z" fill="#C3ECEE"/>
<path d="M0 205L31.5 186.813L31.5 223.187L0 205Z" fill="#23C8B2"/>
<path d="M149 16L173 2.14359V29.8564L149 16Z" fill="#A1E8E4"/>
<path d="M95 201V88.3584L4 53V152.003L95 201Z" fill="#23C8B2"/>
<path d="M186.6 146C186.067 146 185.587 145.813 185.16 145.44C184.787 145.013 184.6 144.533 184.6 144V92C184.6 91.4133 184.787 90.9333 185.16 90.56C185.587 90.1867 186.067 90 186.6 90H209C215.827 90 221.187 91.5733 225.08 94.72C229.027 97.8667 231 102.453 231 108.48C231 114.453 229.053 118.96 225.16 122C221.267 124.987 215.88 126.48 209 126.48H199.48V144C199.48 144.587 199.267 145.067 198.84 145.44C198.467 145.813 197.987 146 197.4 146H186.6ZM208.6 115.44C210.947 115.44 212.787 114.853 214.12 113.68C215.453 112.453 216.12 110.667 216.12 108.32C216.12 106.133 215.48 104.4 214.2 103.12C212.973 101.787 211.107 101.12 208.6 101.12H199.24V115.44H208.6ZM239.783 146C239.196 146 238.716 145.813 238.342 145.44C237.969 145.067 237.783 144.587 237.783 144V106.4C237.783 105.813 237.969 105.333 238.342 104.96C238.716 104.587 239.196 104.4 239.783 104.4H248.983C249.569 104.4 250.049 104.613 250.423 105.04C250.849 105.413 251.063 105.867 251.063 106.4V109.6C253.996 106.133 257.943 104.4 262.903 104.4H266.423C267.009 104.4 267.489 104.587 267.863 104.96C268.236 105.333 268.423 105.813 268.423 106.4V114.64C268.423 115.173 268.236 115.653 267.863 116.08C267.489 116.453 267.009 116.64 266.423 116.64H258.663C256.476 116.64 254.769 117.253 253.543 118.48C252.369 119.653 251.783 121.333 251.783 123.52V144C251.783 144.587 251.569 145.067 251.143 145.44C250.769 145.813 250.289 146 249.703 146H239.783ZM293.4 146.8C286.787 146.8 281.693 145.227 278.12 142.08C274.547 138.933 272.6 134.507 272.28 128.8C272.227 128.107 272.2 126.907 272.2 125.2C272.2 123.493 272.227 122.293 272.28 121.6C272.6 115.947 274.6 111.547 278.28 108.4C281.96 105.2 287 103.6 293.4 103.6C299.853 103.6 304.92 105.2 308.6 108.4C312.28 111.547 314.28 115.947 314.6 121.6C314.653 122.293 314.68 123.493 314.68 125.2C314.68 126.907 314.653 128.107 314.6 128.8C314.28 134.507 312.333 138.933 308.76 142.08C305.187 145.227 300.067 146.8 293.4 146.8ZM293.4 137.04C295.747 137.04 297.48 136.347 298.6 134.96C299.72 133.52 300.36 131.333 300.52 128.4C300.573 127.867 300.6 126.8 300.6 125.2C300.6 123.6 300.573 122.533 300.52 122C300.36 119.12 299.693 116.96 298.52 115.52C297.4 114.08 295.693 113.36 293.4 113.36C288.973 113.36 286.627 116.24 286.36 122L286.28 125.2L286.36 128.4C286.467 131.333 287.08 133.52 288.2 134.96C289.373 136.347 291.107 137.04 293.4 137.04ZM338.146 146.8C332.92 146.8 328.84 145.173 325.906 141.92C323.026 138.613 321.453 133.973 321.186 128L321.106 125.2L321.186 122.32C321.4 116.56 322.973 112 325.906 108.64C328.893 105.28 332.973 103.6 338.146 103.6C343 103.6 346.92 105.173 349.906 108.32V91.2C349.906 90.6133 350.093 90.1333 350.466 89.76C350.84 89.3867 351.32 89.2 351.906 89.2H361.666C362.253 89.2 362.733 89.3867 363.106 89.76C363.48 90.1333 363.666 90.6133 363.666 91.2V144C363.666 144.533 363.48 145.013 363.106 145.44C362.733 145.813 362.253 146 361.666 146H352.626C352.093 146 351.613 145.813 351.186 145.44C350.813 145.013 350.626 144.533 350.626 144V141.44C347.693 145.013 343.533 146.8 338.146 146.8ZM342.546 136.08C344.946 136.08 346.733 135.333 347.906 133.84C349.08 132.293 349.746 130.32 349.906 127.92C349.96 127.227 349.986 126.213 349.986 124.88C349.986 123.6 349.96 122.613 349.906 121.92C349.8 119.733 349.133 117.92 347.906 116.48C346.68 115.04 344.893 114.32 342.546 114.32C340.04 114.32 338.226 115.067 337.106 116.56C336.04 118.053 335.426 120.107 335.266 122.72C335.213 123.253 335.186 124.08 335.186 125.2C335.186 126.32 335.213 127.147 335.266 127.68C335.426 130.293 336.04 132.347 337.106 133.84C338.226 135.333 340.04 136.08 342.546 136.08ZM388.375 146.8C383.682 146.8 379.895 145.227 377.015 142.08C374.135 138.88 372.695 134.427 372.695 128.72V106.4C372.695 105.813 372.882 105.333 373.255 104.96C373.628 104.587 374.108 104.4 374.695 104.4H384.695C385.282 104.4 385.762 104.587 386.135 104.96C386.562 105.333 386.775 105.813 386.775 106.4V128.24C386.775 133.467 389.095 136.08 393.735 136.08C395.975 136.08 397.735 135.387 399.015 134C400.295 132.613 400.935 130.693 400.935 128.24V106.4C400.935 105.813 401.122 105.333 401.495 104.96C401.922 104.587 402.402 104.4 402.935 104.4H412.935C413.522 104.4 414.002 104.587 414.375 104.96C414.748 105.333 414.935 105.813 414.935 106.4V144C414.935 144.533 414.748 145.013 414.375 145.44C414.002 145.813 413.522 146 412.935 146H403.655C403.122 146 402.642 145.813 402.215 145.44C401.842 145.013 401.655 144.533 401.655 144V140.96C398.882 144.853 394.455 146.8 388.375 146.8ZM443.465 146.8C437.438 146.8 432.558 145.2 428.825 142C425.092 138.747 423.092 134.24 422.825 128.48L422.745 125.28L422.825 122C423.038 116.24 425.012 111.733 428.745 108.48C432.532 105.227 437.438 103.6 443.465 103.6C447.998 103.6 451.812 104.427 454.905 106.08C458.052 107.68 460.372 109.627 461.865 111.92C463.412 114.16 464.238 116.213 464.345 118.08C464.398 118.613 464.212 119.093 463.785 119.52C463.412 119.893 462.932 120.08 462.345 120.08H452.185C451.598 120.08 451.145 119.947 450.825 119.68C450.505 119.413 450.212 119.013 449.945 118.48C449.305 116.827 448.478 115.653 447.465 114.96C446.505 114.267 445.252 113.92 443.705 113.92C439.332 113.92 437.065 116.747 436.905 122.4L436.825 125.44L436.905 128.08C437.012 130.96 437.625 133.093 438.745 134.48C439.918 135.813 441.572 136.48 443.705 136.48C445.358 136.48 446.665 136.133 447.625 135.44C448.585 134.747 449.358 133.573 449.945 131.92C450.212 131.387 450.505 130.987 450.825 130.72C451.145 130.453 451.598 130.32 452.185 130.32H462.345C462.878 130.32 463.332 130.507 463.705 130.88C464.132 131.2 464.345 131.627 464.345 132.16C464.345 133.867 463.598 135.867 462.105 138.16C460.665 140.453 458.372 142.48 455.225 144.24C452.078 145.947 448.158 146.8 443.465 146.8ZM492.813 146C481.773 146 476.253 140.747 476.253 130.24V114.88H470.013C469.426 114.88 468.919 114.693 468.493 114.32C468.119 113.947 467.933 113.467 467.933 112.88V106.4C467.933 105.813 468.119 105.333 468.493 104.96C468.919 104.587 469.426 104.4 470.013 104.4H476.253V91.2C476.253 90.6133 476.439 90.1333 476.812 89.76C477.239 89.3867 477.719 89.2 478.253 89.2H487.533C488.119 89.2 488.599 89.3867 488.973 89.76C489.346 90.1333 489.533 90.6133 489.533 91.2V104.4H499.533C500.119 104.4 500.599 104.587 500.973 104.96C501.399 105.333 501.613 105.813 501.613 106.4V112.88C501.613 113.467 501.399 113.947 500.973 114.32C500.599 114.693 500.119 114.88 499.533 114.88H489.533V129.12C489.533 133.067 491.053 135.04 494.093 135.04H500.253C500.839 135.04 501.319 135.227 501.693 135.6C502.066 135.973 502.253 136.453 502.253 137.04V144C502.253 144.533 502.066 145.013 501.693 145.44C501.319 145.813 500.839 146 500.253 146H492.813ZM528.788 146C528.254 146 527.774 145.813 527.348 145.44C526.974 145.013 526.788 144.533 526.788 144V92C526.788 91.4133 526.974 90.9333 527.348 90.56C527.774 90.1867 528.254 90 528.788 90H565.588C566.174 90 566.654 90.1867 567.028 90.56C567.401 90.9333 567.588 91.4133 567.588 92V100.08C567.588 100.613 567.401 101.093 567.028 101.52C566.654 101.893 566.174 102.08 565.588 102.08H540.868V113.84H563.988C564.574 113.84 565.054 114.053 565.428 114.48C565.801 114.853 565.988 115.333 565.988 115.92V123.92C565.988 124.453 565.801 124.933 565.428 125.36C565.054 125.733 564.574 125.92 563.988 125.92H540.868V144C540.868 144.587 540.681 145.067 540.308 145.44C539.934 145.813 539.454 146 538.868 146H528.788ZM576.658 146C576.071 146 575.591 145.813 575.217 145.44C574.844 145.067 574.658 144.587 574.658 144V106.4C574.658 105.813 574.844 105.333 575.217 104.96C575.591 104.587 576.071 104.4 576.658 104.4H585.858C586.444 104.4 586.924 104.613 587.298 105.04C587.724 105.413 587.938 105.867 587.938 106.4V109.6C590.871 106.133 594.818 104.4 599.778 104.4H603.298C603.884 104.4 604.364 104.587 604.738 104.96C605.111 105.333 605.298 105.813 605.298 106.4V114.64C605.298 115.173 605.111 115.653 604.738 116.08C604.364 116.453 603.884 116.64 603.298 116.64H595.538C593.351 116.64 591.644 117.253 590.418 118.48C589.244 119.653 588.658 121.333 588.658 123.52V144C588.658 144.587 588.444 145.067 588.018 145.44C587.644 145.813 587.164 146 586.578 146H576.658ZM612.906 98.4C612.319 98.4 611.839 98.2133 611.466 97.84C611.092 97.4667 610.906 96.9867 610.906 96.4V89.2C610.906 88.6133 611.092 88.1333 611.466 87.76C611.839 87.3867 612.319 87.2 612.906 87.2H622.506C623.092 87.2 623.572 87.3867 623.946 87.76C624.319 88.1333 624.506 88.6133 624.506 89.2V96.4C624.506 96.9867 624.319 97.4667 623.946 97.84C623.572 98.2133 623.092 98.4 622.506 98.4H612.906ZM612.986 146C612.399 146 611.919 145.813 611.546 145.44C611.172 145.067 610.986 144.587 610.986 144V106.4C610.986 105.813 611.172 105.333 611.546 104.96C611.919 104.587 612.399 104.4 612.986 104.4H622.426C623.012 104.4 623.492 104.587 623.866 104.96C624.239 105.333 624.426 105.813 624.426 106.4V144C624.426 144.533 624.239 145.013 623.866 145.44C623.492 145.813 623.012 146 622.426 146H612.986ZM649.396 146.8C644.17 146.8 640.09 145.173 637.156 141.92C634.276 138.613 632.703 133.973 632.436 128L632.356 125.2L632.436 122.32C632.65 116.56 634.223 112 637.156 108.64C640.143 105.28 644.223 103.6 649.396 103.6C654.25 103.6 658.17 105.173 661.156 108.32V91.2C661.156 90.6133 661.343 90.1333 661.716 89.76C662.09 89.3867 662.57 89.2 663.156 89.2H672.916C673.503 89.2 673.983 89.3867 674.356 89.76C674.73 90.1333 674.916 90.6133 674.916 91.2V144C674.916 144.533 674.73 145.013 674.356 145.44C673.983 145.813 673.503 146 672.916 146H663.876C663.343 146 662.863 145.813 662.436 145.44C662.063 145.013 661.876 144.533 661.876 144V141.44C658.943 145.013 654.783 146.8 649.396 146.8ZM653.796 136.08C656.196 136.08 657.983 135.333 659.156 133.84C660.33 132.293 660.996 130.32 661.156 127.92C661.21 127.227 661.236 126.213 661.236 124.88C661.236 123.6 661.21 122.613 661.156 121.92C661.05 119.733 660.383 117.92 659.156 116.48C657.93 115.04 656.143 114.32 653.796 114.32C651.29 114.32 649.476 115.067 648.356 116.56C647.29 118.053 646.676 120.107 646.516 122.72C646.463 123.253 646.436 124.08 646.436 125.2C646.436 126.32 646.463 127.147 646.516 127.68C646.676 130.293 647.29 132.347 648.356 133.84C649.476 135.333 651.29 136.08 653.796 136.08ZM696.825 146.8C693.998 146.8 691.412 146.267 689.065 145.2C686.772 144.08 684.958 142.587 683.625 140.72C682.345 138.8 681.705 136.693 681.705 134.4C681.705 130.72 683.198 127.76 686.185 125.52C689.225 123.28 693.385 121.733 698.665 120.88L708.665 119.36V118.24C708.665 116.213 708.238 114.72 707.385 113.76C706.532 112.8 705.092 112.32 703.065 112.32C701.838 112.32 700.825 112.533 700.025 112.96C699.225 113.387 698.398 113.973 697.545 114.72C696.798 115.36 696.238 115.787 695.865 116C695.705 116.427 695.412 116.64 694.985 116.64H686.265C685.732 116.64 685.278 116.48 684.905 116.16C684.585 115.787 684.452 115.36 684.505 114.88C684.558 113.44 685.252 111.84 686.585 110.08C687.972 108.32 690.052 106.8 692.825 105.52C695.652 104.24 699.118 103.6 703.225 103.6C709.785 103.6 714.638 105.067 717.785 108C720.932 110.88 722.505 114.773 722.505 119.68V144C722.505 144.533 722.318 145.013 721.945 145.44C721.572 145.813 721.092 146 720.505 146H711.225C710.692 146 710.212 145.813 709.785 145.44C709.412 145.013 709.225 144.533 709.225 144V141.2C708.052 142.853 706.398 144.213 704.265 145.28C702.185 146.293 699.705 146.8 696.825 146.8ZM700.585 137.68C703.038 137.68 705.012 136.88 706.505 135.28C708.052 133.68 708.825 131.333 708.825 128.24V127.12L702.025 128.32C697.225 129.173 694.825 130.853 694.825 133.36C694.825 134.693 695.385 135.76 696.505 136.56C697.625 137.307 698.985 137.68 700.585 137.68ZM737.964 161.2C737.484 161.2 737.084 161.04 736.764 160.72C736.444 160.4 736.284 160 736.284 159.52C736.284 159.147 736.364 158.8 736.524 158.48L742.764 143.44L727.404 107.12C727.244 106.693 727.164 106.373 727.164 106.16C727.271 105.68 727.484 105.28 727.804 104.96C728.124 104.587 728.524 104.4 729.004 104.4H738.124C739.244 104.4 740.018 104.96 740.444 106.08L749.564 129.36L758.924 106.08C759.458 104.96 760.258 104.4 761.324 104.4H770.284C770.764 104.4 771.164 104.587 771.484 104.96C771.858 105.28 772.044 105.653 772.044 106.08C772.044 106.293 771.964 106.64 771.804 107.12L749.164 159.52C748.738 160.64 747.938 161.2 746.764 161.2H737.964Z" fill="black"/>
</svg>
