<svg width="300" height="300" viewBox="0 0 300 300" fill="none" xmlns="http://www.w3.org/2000/svg">
<rect width="300" height="300" fill="white"/>
<path d="M37.3677 209.102L35.4912 213.153C33.9133 212.422 32.9034 210.841 32.9034 209.102H37.3677ZM147.932 29.8823L146.088 25.8162C147.26 25.285 148.604 25.2852 149.776 25.8169L147.932 29.8823ZM41.9981 77.8992L40.1512 73.8349L40.1551 73.8331L41.9981 77.8992ZM37.3676 81.8712H32.9033C32.9033 81.0081 33.1534 80.1638 33.6234 79.44L37.3676 81.8712ZM143.316 258.183L141.452 262.239L141.439 262.234L143.316 258.183ZM147.931 254.726C150.397 254.726 152.396 256.725 152.396 259.191C152.396 261.656 150.397 263.655 147.931 263.655V254.726ZM253.865 77.948L255.71 73.8828L255.718 73.8864L253.865 77.948ZM262.236 79.4912C263.579 81.559 262.991 84.3239 260.923 85.6668C258.855 87.0093 256.09 86.4215 254.747 84.3537L262.236 79.4912ZM149.774 33.9483L43.8412 81.9653L40.1551 73.8331L146.088 25.8162L149.774 33.9483ZM43.8451 81.9635C42.7103 82.4793 41.7655 83.2956 41.1118 84.3025L33.6234 79.44C35.2162 76.987 37.4856 75.0462 40.1512 73.8349L43.8451 81.9635ZM39.2442 205.051L145.192 254.132L141.439 262.234L35.4912 213.153L39.2442 205.051ZM145.18 254.126C146.037 254.52 146.977 254.726 147.931 254.726V263.655C145.695 263.655 143.483 263.173 141.452 262.239L145.18 254.126ZM149.776 25.8169L255.71 73.8828L252.021 82.0135L146.087 33.9476L149.776 25.8169ZM255.718 73.8864C258.379 75.1004 260.645 77.0406 262.236 79.4912L254.747 84.3537C254.093 83.3456 253.148 82.5278 252.012 82.0096L255.718 73.8864ZM32.9034 209.102L32.9033 81.8712H41.8319L41.832 209.102H32.9034Z" fill="black"/>
<path d="M152.417 141.282L258.812 206.143M152.416 221.34L184.905 241.11L152.416 221.34ZM191.825 123.553L256.506 165.637L191.825 123.553ZM152.417 180.113L222.931 225.294L152.417 180.113ZM229.058 105.356L257.141 123.553L229.058 105.356Z" stroke="black" stroke-width="6" stroke-linecap="round" stroke-linejoin="round"/>
</svg>
