<svg width="2000" height="801" viewBox="0 0 2000 801" fill="none" xmlns="http://www.w3.org/2000/svg">
<rect width="2000" height="801" fill="white"/>
<path d="M274.945 345.475L460.58 267.563L274.945 186.359V345.475Z" fill="#BCEFD0"/>
<path d="M274.945 347.685L73.8398 268.691L274.945 186.359V347.685Z" fill="#C3ECEE"/>
<path d="M65 604.039L134.613 563.847V644.23L65 604.039Z" fill="#23C8B2"/>
<path d="M394.282 186.359L447.32 155.737V216.981L394.282 186.359Z" fill="#A1E8E4"/>
<path d="M274.945 595.199V346.267L73.8399 268.127V486.919L274.945 595.199Z" fill="#23C8B2"/>
<path d="M623.49 421.089C623.49 434.757 620.364 445.77 614.11 454.126C607.857 462.482 599.39 466.66 588.71 466.66C577.808 466.66 569.231 463.201 562.978 456.284V499.531H547.621V375.186H561.649L562.396 385.146C568.65 377.399 577.338 373.525 588.461 373.525C599.252 373.525 607.774 377.593 614.027 385.728C620.336 393.862 623.49 405.179 623.49 419.678V421.089ZM608.134 419.346C608.134 409.219 605.976 401.222 601.659 395.356C597.343 389.491 591.422 386.558 583.896 386.558C574.599 386.558 567.626 390.68 562.978 398.926V441.841C567.571 450.031 574.599 454.126 584.062 454.126C591.422 454.126 597.26 451.221 601.576 445.41C605.948 439.544 608.134 430.856 608.134 419.346ZM686.493 388.965C684.169 388.577 681.651 388.384 678.939 388.384C668.868 388.384 662.034 392.673 658.437 401.25V465H643.08V375.186H658.021L658.271 385.562C663.306 377.537 670.445 373.525 679.687 373.525C682.675 373.525 684.944 373.913 686.493 374.688V388.965ZM694.96 419.263C694.96 410.464 696.675 402.55 700.106 395.522C703.593 388.494 708.407 383.071 714.55 379.253C720.748 375.435 727.803 373.525 735.717 373.525C747.947 373.525 757.825 377.759 765.351 386.226C772.932 394.692 776.723 405.954 776.723 420.01V421.089C776.723 429.832 775.035 437.69 771.659 444.663C768.339 451.58 763.552 456.976 757.299 460.85C751.101 464.723 743.962 466.66 735.883 466.66C723.708 466.66 713.83 462.427 706.249 453.96C698.723 445.493 694.96 434.287 694.96 420.342V419.263ZM710.399 421.089C710.399 431.05 712.696 439.046 717.289 445.078C721.938 451.11 728.135 454.126 735.883 454.126C743.686 454.126 749.883 451.082 754.477 444.995C759.07 438.853 761.366 430.275 761.366 419.263C761.366 409.412 759.014 401.444 754.311 395.356C749.662 389.214 743.464 386.143 735.717 386.143C728.135 386.143 722.021 389.159 717.372 395.19C712.724 401.222 710.399 409.855 710.399 421.089ZM792.245 419.346C792.245 405.566 795.51 394.499 802.04 386.143C808.57 377.731 817.12 373.525 827.689 373.525C838.204 373.525 846.532 377.122 852.675 384.316V337.5H868.031V465H853.92L853.173 455.371C847.03 462.897 838.48 466.66 827.523 466.66C817.12 466.66 808.625 462.399 802.04 453.877C795.51 445.355 792.245 434.232 792.245 420.508V419.346ZM807.602 421.089C807.602 431.271 809.704 439.24 813.91 444.995C818.116 450.75 823.926 453.628 831.342 453.628C841.081 453.628 848.192 449.256 852.675 440.513V399.258C848.082 390.791 841.026 386.558 831.508 386.558C823.982 386.558 818.116 389.463 813.91 395.273C809.704 401.084 807.602 409.689 807.602 421.089ZM947.387 456.118C941.41 463.146 932.639 466.66 921.073 466.66C911.5 466.66 904.195 463.893 899.159 458.359C894.179 452.77 891.661 444.525 891.605 433.623V375.186H906.962V433.208C906.962 446.821 912.496 453.628 923.563 453.628C935.295 453.628 943.098 449.256 946.972 440.513V375.186H962.328V465H947.719L947.387 456.118ZM1021.76 454.126C1027.24 454.126 1032.03 452.466 1036.12 449.146C1040.22 445.825 1042.49 441.675 1042.93 436.694H1057.46C1057.18 441.841 1055.41 446.738 1052.14 451.387C1048.88 456.035 1044.51 459.743 1039.03 462.51C1033.6 465.277 1027.85 466.66 1021.76 466.66C1009.53 466.66 999.792 462.593 992.543 454.458C985.349 446.268 981.752 435.09 981.752 420.923V418.35C981.752 409.606 983.357 401.831 986.566 395.024C989.776 388.218 994.369 382.933 1000.35 379.17C1006.38 375.407 1013.49 373.525 1021.68 373.525C1031.75 373.525 1040.11 376.541 1046.75 382.573C1053.44 388.605 1057.01 396.436 1057.46 406.064H1042.93C1042.49 400.254 1040.27 395.495 1036.29 391.787C1032.36 388.024 1027.49 386.143 1021.68 386.143C1013.88 386.143 1007.82 388.965 1003.5 394.609C999.239 400.199 997.108 408.306 997.108 418.931V421.836C997.108 432.184 999.239 440.153 1003.5 445.742C1007.76 451.331 1013.85 454.126 1021.76 454.126ZM1095.56 353.438V375.186H1112.32V387.056H1095.56V442.754C1095.56 446.351 1096.3 449.062 1097.8 450.889C1099.29 452.66 1101.84 453.545 1105.43 453.545C1107.2 453.545 1109.64 453.213 1112.74 452.549V465C1108.7 466.107 1104.77 466.66 1100.95 466.66C1094.09 466.66 1088.92 464.585 1085.43 460.435C1081.94 456.284 1080.2 450.391 1080.2 442.754V387.056H1063.85V375.186H1080.2V353.438H1095.56ZM1556.33 456.948C1556.33 454.292 1557.11 452.078 1558.66 450.308C1560.26 448.537 1562.64 447.651 1565.79 447.651C1568.95 447.651 1571.33 448.537 1572.93 450.308C1574.59 452.078 1575.42 454.292 1575.42 456.948C1575.42 459.494 1574.59 461.624 1572.93 463.34C1571.33 465.055 1568.95 465.913 1565.79 465.913C1562.64 465.913 1560.26 465.055 1558.66 463.34C1557.11 461.624 1556.33 459.494 1556.33 456.948ZM1636.85 454.126C1642.33 454.126 1647.11 452.466 1651.21 449.146C1655.31 445.825 1657.57 441.675 1658.02 436.694H1672.54C1672.27 441.841 1670.5 446.738 1667.23 451.387C1663.97 456.035 1659.59 459.743 1654.12 462.51C1648.69 465.277 1642.94 466.66 1636.85 466.66C1624.62 466.66 1614.88 462.593 1607.63 454.458C1600.44 446.268 1596.84 435.09 1596.84 420.923V418.35C1596.84 409.606 1598.44 401.831 1601.65 395.024C1604.86 388.218 1609.46 382.933 1615.43 379.17C1621.47 375.407 1628.58 373.525 1636.77 373.525C1646.84 373.525 1655.19 376.541 1661.83 382.573C1668.53 388.605 1672.1 396.436 1672.54 406.064H1658.02C1657.57 400.254 1655.36 395.495 1651.38 391.787C1647.45 388.024 1642.58 386.143 1636.77 386.143C1628.96 386.143 1622.9 388.965 1618.59 394.609C1614.33 400.199 1612.2 408.306 1612.2 418.931V421.836C1612.2 432.184 1614.33 440.153 1618.59 445.742C1622.85 451.331 1628.94 454.126 1636.85 454.126ZM1685.74 419.263C1685.74 410.464 1687.46 402.55 1690.89 395.522C1694.37 388.494 1699.19 383.071 1705.33 379.253C1711.53 375.435 1718.58 373.525 1726.5 373.525C1738.73 373.525 1748.61 377.759 1756.13 386.226C1763.71 394.692 1767.5 405.954 1767.5 420.01V421.089C1767.5 429.832 1765.82 437.69 1762.44 444.663C1759.12 451.58 1754.33 456.976 1748.08 460.85C1741.88 464.723 1734.74 466.66 1726.66 466.66C1714.49 466.66 1704.61 462.427 1697.03 453.96C1689.5 445.493 1685.74 434.287 1685.74 420.342V419.263ZM1701.18 421.089C1701.18 431.05 1703.48 439.046 1708.07 445.078C1712.72 451.11 1718.92 454.126 1726.66 454.126C1734.47 454.126 1740.66 451.082 1745.26 444.995C1749.85 438.853 1752.15 430.275 1752.15 419.263C1752.15 409.412 1749.8 401.444 1745.09 395.356C1740.44 389.214 1734.25 386.143 1726.5 386.143C1718.92 386.143 1712.8 389.159 1708.15 395.19C1703.5 401.222 1701.18 409.855 1701.18 421.089ZM1801.21 375.186L1801.62 385.146C1808.21 377.399 1817.09 373.525 1828.27 373.525C1840.83 373.525 1849.38 378.34 1853.92 387.969C1856.9 383.652 1860.78 380.166 1865.54 377.51C1870.35 374.854 1876.02 373.525 1882.55 373.525C1902.25 373.525 1912.27 383.957 1912.6 404.819V465H1897.25V405.732C1897.25 399.313 1895.78 394.526 1892.85 391.372C1889.91 388.162 1884.99 386.558 1878.07 386.558C1872.37 386.558 1867.64 388.273 1863.88 391.704C1860.11 395.08 1857.93 399.645 1857.32 405.4V465H1841.88V406.147C1841.88 393.088 1835.49 386.558 1822.7 386.558C1812.63 386.558 1805.74 390.846 1802.04 399.424V465H1786.68V375.186H1801.21Z" fill="black"/>
<path d="M1137.89 465V387.056H1123.7V375.186H1137.89V365.972C1137.89 356.343 1140.46 348.9 1145.61 343.643C1150.76 338.385 1158.03 335.757 1167.44 335.757C1170.98 335.757 1174.5 336.227 1177.98 337.168L1177.15 349.619C1174.55 349.121 1171.78 348.872 1168.85 348.872C1163.87 348.872 1160.03 350.339 1157.31 353.271C1154.6 356.149 1153.25 360.299 1153.25 365.723V375.186H1172.42V387.056H1153.25V465H1137.89ZM1232.85 388.965C1230.53 388.577 1228.01 388.384 1225.3 388.384C1215.23 388.384 1208.39 392.673 1204.79 401.25V465H1189.44V375.186H1204.38L1204.63 385.562C1209.66 377.537 1216.8 373.525 1226.04 373.525C1229.03 373.525 1231.3 373.913 1232.85 374.688V388.965ZM1263.73 465H1248.37V375.186H1263.73V465ZM1247.13 351.362C1247.13 348.872 1247.88 346.769 1249.37 345.054C1250.92 343.338 1253.19 342.48 1256.18 342.48C1259.16 342.48 1261.43 343.338 1262.98 345.054C1264.53 346.769 1265.31 348.872 1265.31 351.362C1265.31 353.853 1264.53 355.928 1262.98 357.588C1261.43 359.248 1259.16 360.078 1256.18 360.078C1253.19 360.078 1250.92 359.248 1249.37 357.588C1247.88 355.928 1247.13 353.853 1247.13 351.362ZM1284.65 419.346C1284.65 405.566 1287.91 394.499 1294.44 386.143C1300.97 377.731 1309.52 373.525 1320.09 373.525C1330.61 373.525 1338.93 377.122 1345.08 384.316V337.5H1360.43V465H1346.32L1345.58 455.371C1339.43 462.897 1330.88 466.66 1319.93 466.66C1309.52 466.66 1301.03 462.399 1294.44 453.877C1287.91 445.355 1284.65 434.232 1284.65 420.508V419.346ZM1300 421.089C1300 431.271 1302.11 439.24 1306.31 444.995C1310.52 450.75 1316.33 453.628 1323.74 453.628C1333.48 453.628 1340.59 449.256 1345.08 440.513V399.258C1340.48 390.791 1333.43 386.558 1323.91 386.558C1316.38 386.558 1310.52 389.463 1306.31 395.273C1302.11 401.084 1300 409.689 1300 421.089ZM1439.79 465C1438.9 463.229 1438.18 460.075 1437.63 455.537C1430.49 462.952 1421.97 466.66 1412.06 466.66C1403.21 466.66 1395.93 464.17 1390.23 459.189C1384.59 454.154 1381.77 447.79 1381.77 440.098C1381.77 430.745 1385.31 423.496 1392.39 418.35C1399.53 413.148 1409.55 410.547 1422.44 410.547H1437.38V403.491C1437.38 398.123 1435.78 393.862 1432.57 390.708C1429.36 387.498 1424.63 385.894 1418.37 385.894C1412.89 385.894 1408.3 387.277 1404.59 390.044C1400.89 392.811 1399.03 396.159 1399.03 400.088H1383.59C1383.59 395.605 1385.17 391.289 1388.32 387.139C1391.53 382.933 1395.85 379.613 1401.27 377.178C1406.75 374.743 1412.76 373.525 1419.29 373.525C1429.63 373.525 1437.74 376.126 1443.61 381.328C1449.47 386.475 1452.52 393.586 1452.74 402.661V443.999C1452.74 452.244 1453.79 458.802 1455.89 463.672V465H1439.79ZM1414.31 453.296C1419.12 453.296 1423.69 452.051 1428 449.561C1432.32 447.07 1435.44 443.833 1437.38 439.849V421.421H1425.35C1406.53 421.421 1397.12 426.927 1397.12 437.939C1397.12 442.754 1398.73 446.517 1401.94 449.229C1405.15 451.94 1409.27 453.296 1414.31 453.296ZM1504.87 442.505L1525.79 375.186H1542.22L1506.11 478.862C1500.52 493.804 1491.64 501.274 1479.47 501.274L1476.56 501.025L1470.83 499.946V487.495L1474.98 487.827C1480.19 487.827 1484.23 486.776 1487.1 484.673C1490.04 482.57 1492.44 478.724 1494.33 473.135L1497.73 464.004L1465.69 375.186H1482.46L1504.87 442.505Z" fill="#FC6472"/>
</svg>
