<svg width="265" height="310" viewBox="0 0 265 310" fill="none" xmlns="http://www.w3.org/2000/svg">
<path d="M0 105V0H65.75H131.5L65.75 52.5L0 105Z" fill="#A1E8E4"/>
<path d="M131 0H65V53L131 0Z" fill="#A1E8E4"/>
<path d="M65.5 0H0L65.5 52V0Z" fill="#23C8B2"/>
<path d="M83.0373 139L-2 105.533L130.102 -2L213 24.8833L83.0373 139Z" fill="#BCEFD0"/>
<path d="M265 27L241 40.8564V13.1436L265 27Z" fill="#BCEFD0"/>
<path d="M49 294L73 280.144V307.856L49 294Z" fill="#FC6472"/>
<path d="M81 249L0 209V294L81 249Z" fill="#ECCDB3"/>
<path d="M162 291V175L81 249.009L162 291Z" fill="#A1E8E4"/>
<path d="M162 177V291L242 218.267L162 177Z" fill="#BCEFD0"/>
<path d="M81 249V137.189L162 69V176.799L81 249Z" fill="#23C8B2"/>
<path d="M0 209.278V106L81 137.281V249L0 209.278Z" fill="#FC6472"/>
</svg>
